<svg xmlns="http://www.w3.org/2000/svg" width="1200" height="675" viewBox="0 0 1200 675" role="img" aria-label="¡Lx«‘b">
  <defs>
    <linearGradient id="bg" x1="0" y1="0" x2="1" y2="1">
      <stop offset="0" stop-color="#ffffff"/>
      <stop offset="1" stop-color="#eff6ff"/>
    </linearGradient>
    <filter id="shadow" x="-20%" y="-20%" width="140%" height="140%">
      <feDropShadow dx="0" dy="10" stdDeviation="14" flood-color="#0f172a" flood-opacity="0.10"/>
    </filter>
  </defs>
  <rect width="1200" height="675" fill="url(#bg)"/>
  <g filter="url(#shadow)">
    <rect x="110" y="110" width="980" height="455" rx="22" fill="#ffffff" stroke="#e2e8f0"/>
  </g>

  <g transform="translate(250 190)">
    <rect x="0" y="0" width="260" height="320" rx="20" fill="#f8fafc" stroke="#e2e8f0"/>
    <rect x="40" y="34" width="180" height="30" rx="15" fill="#cbd5e1"/>
    <rect x="40" y="88" width="120" height="14" rx="7" fill="#e2e8f0"/>
    <rect x="40" y="116" width="160" height="14" rx="7" fill="#e2e8f0"/>
    <rect x="40" y="144" width="96" height="14" rx="7" fill="#e2e8f0"/>
    <circle cx="74" cy="266" r="10" fill="#2563eb"/>
  </g>

  <g transform="translate(690 190)">
    <rect x="0" y="0" width="260" height="320" rx="20" fill="#f8fafc" stroke="#e2e8f0"/>
    <rect x="40" y="34" width="180" height="30" rx="15" fill="#cbd5e1"/>
    <rect x="40" y="88" width="120" height="14" rx="7" fill="#e2e8f0"/>
    <rect x="40" y="116" width="160" height="14" rx="7" fill="#e2e8f0"/>
    <rect x="40" y="144" width="96" height="14" rx="7" fill="#e2e8f0"/>
    <circle cx="74" cy="266" r="10" fill="#60a5fa"/>
  </g>

  <g transform="translate(560 320)">
    <circle cx="40" cy="40" r="40" fill="#2563eb" opacity="0.10"/>
    <path d="M18 32c22-20 42-20 64 0" fill="none" stroke="#2563eb" stroke-width="10" stroke-linecap="round"/>
    <path d="M18 56c22 20 42 20 64 0" fill="none" stroke="#2563eb" stroke-width="10" stroke-linecap="round"/>
  </g>
</svg>
