<svg xmlns="http://www.w3.org/2000/svg" width="1200" height="675" viewBox="0 0 1200 675" role="img" aria-label="c¿xsb">
  <defs>
    <linearGradient id="left" x1="0" y1="0" x2="0" y2="1">
      <stop offset="0" stop-color="#e0f2fe"/>
      <stop offset="1" stop-color="#ffffff"/>
    </linearGradient>
    <linearGradient id="right" x1="0" y1="0" x2="0" y2="1">
      <stop offset="0" stop-color="#fff7ed"/>
      <stop offset="1" stop-color="#ffffff"/>
    </linearGradient>
    <filter id="shadow" x="-20%" y="-20%" width="140%" height="140%">
      <feDropShadow dx="0" dy="10" stdDeviation="14" flood-color="#0f172a" flood-opacity="0.10"/>
    </filter>
  </defs>
  <rect width="600" height="675" fill="url(#left)"/>
  <rect x="600" width="600" height="675" fill="url(#right)"/>

  <g filter="url(#shadow)">
    <rect x="110" y="120" width="980" height="435" rx="24" fill="#ffffff" stroke="#e2e8f0"/>
  </g>

  <!-- summer side -->
  <g transform="translate(210 245)">
    <rect x="0" y="0" width="230" height="230" rx="26" fill="#eff6ff" stroke="#bfdbfe"/>
    <g fill="#93c5fd">
      <rect x="40" y="48" width="60" height="60" rx="12"/>
      <rect x="110" y="60" width="60" height="60" rx="12"/>
      <rect x="70" y="118" width="60" height="60" rx="12"/>
    </g>
    <circle cx="176" cy="176" r="34" fill="#fde68a" opacity="0.6"/>
    <circle cx="176" cy="176" r="18" fill="#f59e0b" opacity="0.35"/>
  </g>

  <!-- winter side -->
  <g transform="translate(760 260)">
    <rect x="0" y="0" width="250" height="210" rx="26" fill="#fff7ed" stroke="#fed7aa"/>
    <rect x="44" y="70" width="162" height="86" rx="18" fill="#ffffff" stroke="#e2e8f0"/>
    <path d="M80 56c0-18 18-26 18-44" fill="none" stroke="#f59e0b" stroke-width="10" stroke-linecap="round" opacity="0.5"/>
    <path d="M128 56c0-18 18-26 18-44" fill="none" stroke="#fb923c" stroke-width="10" stroke-linecap="round" opacity="0.45"/>
    <path d="M176 56c0-18 18-26 18-44" fill="none" stroke="#f59e0b" stroke-width="10" stroke-linecap="round" opacity="0.4"/>
  </g>

  <!-- center pod -->
  <g transform="translate(520 230)">
    <rect x="0" y="90" width="160" height="260" rx="18" fill="#f8fafc" stroke="#e2e8f0"/>
    <rect x="32" y="52" width="96" height="58" rx="18" fill="#0f172a"/>
    <circle cx="80" cy="330" r="8" fill="#2563eb"/>
  </g>
</svg>
