<svg xmlns="http://www.w3.org/2000/svg" width="1200" height="675" viewBox="0 0 1200 675" role="img" aria-label="YH•\rø¹Ub">
  <defs>
    <linearGradient id="bg" x1="0" y1="0" x2="1" y2="1">
      <stop offset="0" stop-color="#ffffff"/>
      <stop offset="1" stop-color="#eff6ff"/>
    </linearGradient>
    <filter id="shadow" x="-20%" y="-20%" width="140%" height="140%">
      <feDropShadow dx="0" dy="10" stdDeviation="14" flood-color="#0f172a" flood-opacity=".10"/>
    </filter>
  </defs>
  <rect width="1200" height="675" fill="url(#bg)"/>
  <g filter="url(#shadow)">
    <rect x="150" y="115" width="900" height="445" rx="24" fill="#ffffff" stroke="#e2e8f0"/>
  </g>
  <g transform="translate(515 215)">
    <rect x="0" y="78" width="170" height="270" rx="20" fill="#f8fafc" stroke="#e2e8f0"/>
    <rect x="34" y="40" width="102" height="58" rx="18" fill="#0f172a"/>
    <rect x="28" y="188" width="114" height="16" rx="8" fill="#cbd5e1"/>
    <circle cx="85" cy="330" r="8" fill="#2563eb"/>
  </g>
  <g fill="#bfdbfe" stroke="#2563eb" stroke-width="5">
    <circle cx="390" cy="250" r="22"/>
    <circle cx="345" cy="330" r="15"/>
    <circle cx="805" cy="245" r="19"/>
    <circle cx="850" cy="335" r="13"/>
    <circle cx="790" cy="410" r="11"/>
  </g>
  <g transform="translate(300 430)">
    <path d="M70 0c26 0 46 20 46 46S96 92 70 92 24 72 24 46 44 0 70 0z" fill="#eff6ff" stroke="#bfdbfe"/>
    <path d="M70 22v24l18 12" fill="none" stroke="#2563eb" stroke-width="10" stroke-linecap="round" stroke-linejoin="round"/>
  </g>
  <g transform="translate(820 420)">
    <circle cx="52" cy="52" r="52" fill="#eff6ff" stroke="#bfdbfe"/>
    <path d="M32 60l34-34 14 14-34 34H32V60z" fill="#2563eb" opacity=".9"/>
  </g>
</svg>
