<svg xmlns="http://www.w3.org/2000/svg" width="1200" height="675" viewBox="0 0 1200 675" role="img" aria-label="¨%G¨b">
  <defs>
    <linearGradient id="bg" x1="0" y1="0" x2="1" y2="1">
      <stop offset="0" stop-color="#ffffff"/>
      <stop offset="1" stop-color="#eff6ff"/>
    </linearGradient>
    <filter id="shadow" x="-20%" y="-20%" width="140%" height="140%">
      <feDropShadow dx="0" dy="10" stdDeviation="14" flood-color="#0f172a" flood-opacity="0.10"/>
    </filter>
  </defs>
  <rect width="1200" height="675" fill="url(#bg)"/>
  <g filter="url(#shadow)">
    <rect x="150" y="120" width="900" height="435" rx="24" fill="#ffffff" stroke="#e2e8f0"/>
  </g>

  <g transform="translate(280 210)">
    <rect x="0" y="0" width="300" height="320" rx="22" fill="#f8fafc" stroke="#e2e8f0"/>
    <rect x="34" y="36" width="232" height="44" rx="16" fill="#cbd5e1"/>
    <rect x="34" y="104" width="160" height="16" rx="8" fill="#e2e8f0"/>
    <rect x="34" y="132" width="200" height="16" rx="8" fill="#e2e8f0"/>
    <rect x="34" y="160" width="120" height="16" rx="8" fill="#e2e8f0"/>
    <rect x="34" y="220" width="232" height="64" rx="16" fill="#eff6ff" stroke="#bfdbfe"/>
  </g>

  <g transform="translate(655 250)">
    <circle cx="120" cy="120" r="95" fill="#2563eb" opacity="0.10"/>
    <circle cx="120" cy="120" r="72" fill="#ffffff" stroke="#e2e8f0"/>
    <circle cx="120" cy="120" r="46" fill="#eff6ff" stroke="#bfdbfe"/>
    <path d="M158 158l56 56" stroke="#2563eb" stroke-width="18" stroke-linecap="round"/>
    <circle cx="120" cy="120" r="10" fill="#2563eb"/>
  </g>

  <g transform="translate(720 410)">
    <circle cx="40" cy="40" r="38" fill="#22c55e" opacity="0.16"/>
    <path d="M26 40l9 10 20-24" fill="none" stroke="#22c55e" stroke-width="10" stroke-linecap="round" stroke-linejoin="round"/>
    <circle cx="150" cy="40" r="38" fill="#ef4444" opacity="0.16"/>
    <path d="M138 28l24 24M162 28l-24 24" stroke="#ef4444" stroke-width="10" stroke-linecap="round"/>
  </g>
</svg>
