<svg xmlns="http://www.w3.org/2000/svg" width="1200" height="675" viewBox="0 0 1200 675" role="img" aria-label="¶█1b">
  <defs>
    <linearGradient id="bg" x1="0" y1="0" x2="1" y2="1">
      <stop offset="0" stop-color="#eff6ff"/>
      <stop offset="1" stop-color="#ffffff"/>
    </linearGradient>
    <filter id="shadow" x="-20%" y="-20%" width="140%" height="140%">
      <feDropShadow dx="0" dy="10" stdDeviation="14" flood-color="#0f172a" flood-opacity="0.10"/>
    </filter>
  </defs>
  <rect width="1200" height="675" fill="url(#bg)"/>

  <g filter="url(#shadow)">
    <rect x="170" y="120" width="860" height="435" rx="24" fill="#ffffff" stroke="#e2e8f0"/>
  </g>

  <g transform="translate(310 210)">
    <rect x="0" y="0" width="320" height="280" rx="22" fill="#f8fafc" stroke="#e2e8f0"/>
    <rect x="0" y="0" width="320" height="64" rx="22" fill="#2563eb" opacity="0.10"/>
    <circle cx="68" cy="32" r="10" fill="#2563eb"/>
    <circle cx="252" cy="32" r="10" fill="#2563eb"/>
    <g fill="#cbd5e1">
      <rect x="40" y="96" width="70" height="28" rx="10"/>
      <rect x="130" y="96" width="70" height="28" rx="10"/>
      <rect x="220" y="96" width="70" height="28" rx="10"/>
      <rect x="40" y="140" width="70" height="28" rx="10"/>
      <rect x="130" y="140" width="70" height="28" rx="10"/>
      <rect x="220" y="140" width="70" height="28" rx="10"/>
      <rect x="40" y="184" width="70" height="28" rx="10"/>
      <rect x="130" y="184" width="70" height="28" rx="10"/>
      <rect x="220" y="184" width="70" height="28" rx="10"/>
    </g>
    <rect x="130" y="140" width="70" height="28" rx="10" fill="#60a5fa"/>
  </g>

  <g transform="translate(690 240)">
    <circle cx="120" cy="120" r="120" fill="#2563eb" opacity="0.10"/>
    <circle cx="120" cy="120" r="78" fill="#ffffff" stroke="#e2e8f0"/>
    <path d="M120 120V72" stroke="#2563eb" stroke-width="14" stroke-linecap="round"/>
    <path d="M120 120l48 28" stroke="#60a5fa" stroke-width="14" stroke-linecap="round"/>
    <circle cx="120" cy="120" r="10" fill="#2563eb"/>
  </g>
</svg>
