<svg xmlns="http://www.w3.org/2000/svg" width="1200" height="675" viewBox="0 0 1200 675" role="img" aria-label="Ęs’sS’ĺb">
  <defs>
    <linearGradient id="bg" x1="0" y1="0" x2="1" y2="1">
      <stop offset="0" stop-color="#ffffff"/>
      <stop offset="1" stop-color="#f1f5f9"/>
    </linearGradient>
    <filter id="shadow" x="-20%" y="-20%" width="140%" height="140%">
      <feDropShadow dx="0" dy="10" stdDeviation="14" flood-color="#0f172a" flood-opacity="0.12"/>
    </filter>
  </defs>
  <rect width="1200" height="675" fill="url(#bg)"/>

  <g filter="url(#shadow)">
    <rect x="160" y="120" width="880" height="435" rx="24" fill="#ffffff" stroke="#e2e8f0"/>
  </g>

  <g transform="translate(520 210)">
    <rect x="0" y="80" width="160" height="260" rx="18" fill="#f8fafc" stroke="#e2e8f0"/>
    <rect x="32" y="44" width="96" height="56" rx="18" fill="#0f172a"/>
    <rect x="20" y="190" width="120" height="18" rx="9" fill="#cbd5e1"/>
    <circle cx="80" cy="320" r="8" fill="#2563eb"/>
  </g>

  <g transform="translate(330 255)">
    <path d="M120 0l120 220H0L120 0z" fill="#ef4444" opacity="0.14"/>
    <path d="M120 18l102 186H18L120 18z" fill="#ef4444" opacity="0.22"/>
    <path d="M120 70v70" stroke="#ef4444" stroke-width="18" stroke-linecap="round"/>
    <circle cx="120" cy="170" r="10" fill="#ef4444"/>
  </g>

  <g transform="translate(760 230)" opacity="0.9">
    <path d="M40 170c-10-28 10-54 24-72 16-22 18-40 10-64" fill="none" stroke="#2563eb" stroke-width="10" stroke-linecap="round"/>
    <path d="M90 170c-10-28 10-54 24-72 16-22 18-40 10-64" fill="none" stroke="#60a5fa" stroke-width="10" stroke-linecap="round"/>
    <path d="M140 170c-10-28 10-54 24-72 16-22 18-40 10-64" fill="none" stroke="#93c5fd" stroke-width="10" stroke-linecap="round"/>
  </g>
</svg>
