<svg xmlns="http://www.w3.org/2000/svg" width="1200" height="675" viewBox="0 0 1200 675" role="img" aria-label="°Kăs’Lb">
  <defs>
    <linearGradient id="bg" x1="0" y1="0" x2="1" y2="1">
      <stop offset="0" stop-color="#eff6ff"/>
      <stop offset="1" stop-color="#ffffff"/>
    </linearGradient>
    <linearGradient id="accent" x1="0" y1="0" x2="1" y2="0">
      <stop offset="0" stop-color="#2563eb"/>
      <stop offset="1" stop-color="#60a5fa"/>
    </linearGradient>
    <filter id="shadow" x="-20%" y="-20%" width="140%" height="140%">
      <feDropShadow dx="0" dy="8" stdDeviation="12" flood-color="#0f172a" flood-opacity="0.10"/>
    </filter>
  </defs>

  <rect width="1200" height="675" fill="url(#bg)"/>
  <circle cx="1020" cy="120" r="120" fill="#dbeafe"/>
  <circle cx="220" cy="560" r="160" fill="#e0f2fe"/>

  <g filter="url(#shadow)">
    <rect x="90" y="90" width="1020" height="495" rx="22" fill="#ffffff" stroke="#e2e8f0"/>
  </g>

  <g transform="translate(140 160)">
    <rect x="0" y="40" width="920" height="8" rx="4" fill="#e2e8f0"/>
    <rect x="0" y="0" width="320" height="10" rx="5" fill="url(#accent)"/>
    <g transform="translate(0 110)">
      <g transform="translate(0 0)">
        <rect x="0" y="40" width="140" height="240" rx="16" fill="#f1f5f9" stroke="#e2e8f0"/>
        <rect x="26" y="10" width="88" height="44" rx="16" fill="#0f172a"/>
        <circle cx="70" cy="310" r="7" fill="#2563eb"/>
      </g>
      <g transform="translate(170 0)">
        <rect x="0" y="40" width="140" height="240" rx="16" fill="#f1f5f9" stroke="#e2e8f0"/>
        <rect x="26" y="10" width="88" height="44" rx="16" fill="#0f172a"/>
        <circle cx="70" cy="310" r="7" fill="#60a5fa"/>
      </g>
      <g transform="translate(340 0)">
        <rect x="0" y="40" width="140" height="240" rx="16" fill="#f1f5f9" stroke="#e2e8f0"/>
        <rect x="26" y="10" width="88" height="44" rx="16" fill="#0f172a"/>
        <circle cx="70" cy="310" r="7" fill="#22c55e"/>
      </g>
      <g transform="translate(510 0)">
        <rect x="0" y="40" width="140" height="240" rx="16" fill="#f1f5f9" stroke="#e2e8f0"/>
        <rect x="26" y="10" width="88" height="44" rx="16" fill="#0f172a"/>
        <circle cx="70" cy="310" r="7" fill="#f59e0b"/>
      </g>
      <g transform="translate(680 0)">
        <rect x="0" y="40" width="140" height="240" rx="16" fill="#f1f5f9" stroke="#e2e8f0"/>
        <rect x="26" y="10" width="88" height="44" rx="16" fill="#0f172a"/>
        <circle cx="70" cy="310" r="7" fill="#ef4444"/>
      </g>
    </g>
  </g>

  <g transform="translate(900 210)">
    <circle cx="80" cy="80" r="70" fill="#2563eb" opacity="0.10"/>
    <path d="M64 44h32v20c0 19-12 33-28 38-16-5-28-19-28-38V44h24z" fill="#2563eb" opacity="0.9"/>
    <path d="M80 68l7 9 14-17" fill="none" stroke="#fff" stroke-width="7" stroke-linecap="round" stroke-linejoin="round"/>
  </g>
</svg>
